<svg width="206" height="180" viewBox="0 0 206 180" fill="none" xmlns="http://www.w3.org/2000/svg">
<path d="M192.368 90C192.368 139.706 152.073 180 102.368 180C52.662 180 12.3677 139.706 12.3677 90C12.3677 40.2944 52.662 0 102.368 0C152.073 0 192.368 40.2944 192.368 90Z" fill="#B341FF" fill-opacity="0.3"/>
<path d="M180.368 90C180.368 133.078 145.446 168 102.368 168C59.2895 168 24.3677 133.078 24.3677 90C24.3677 46.9218 59.2895 12 102.368 12C145.446 12 180.368 46.9218 180.368 90Z" fill="#8C12DC"/>
<path fill-rule="evenodd" clip-rule="evenodd" d="M102.368 160C141.028 160 172.368 128.66 172.368 90C172.368 51.3401 141.028 20 102.368 20C63.7077 20 32.3677 51.3401 32.3677 90C32.3677 128.66 63.7077 160 102.368 160ZM102.368 168C145.446 168 180.368 133.078 180.368 90C180.368 46.9218 145.446 12 102.368 12C59.2895 12 24.3677 46.9218 24.3677 90C24.3677 133.078 59.2895 168 102.368 168Z" fill="#332D57"/>
<mask id="mask0_0_1" style="mask-type:alpha" maskUnits="userSpaceOnUse" x="32" y="20" width="141" height="140">
<path d="M172.368 90C172.368 128.66 141.028 160 102.368 160C63.7077 160 32.3677 128.66 32.3677 90C32.3677 51.3401 63.7077 20 102.368 20C141.028 20 172.368 51.3401 172.368 90Z" fill="#B341FF"/>
</mask>
<g mask="url(#mask0_0_1)">
<path d="M156.368 90C156.368 128.66 125.028 160 86.3677 160C47.7077 160 16.3677 128.66 16.3677 90C16.3677 51.3401 47.7077 20 86.3677 20C125.028 20 156.368 51.3401 156.368 90Z" fill="#B341FF"/>
</g>
<path fill-rule="evenodd" clip-rule="evenodd" d="M78.3677 39.0474C78.3677 36.0875 75.3536 34.1004 72.7542 35.5162C59.5298 42.7193 49.2187 54.5968 44.0402 68.9295C43.1284 71.453 45.0838 74.0001 47.7669 74.0001C49.5572 74.0001 51.124 72.8281 51.749 71.1505C56.2522 59.0624 64.9617 49.0222 76.0978 42.8097C77.4706 42.0439 78.3677 40.6193 78.3677 39.0474Z" fill="white"/>
<path d="M47.3677 83C47.3677 85.2091 45.5768 87 43.3677 87C41.1585 87 39.3677 85.2091 39.3677 83C39.3677 80.7909 41.1585 79 43.3677 79C45.5768 79 47.3677 80.7909 47.3677 83Z" fill="white"/>
<path fill-rule="evenodd" clip-rule="evenodd" d="M174.207 32.8115C174.06 26.6868 172.31 22.5923 169.692 19.974C167.074 17.3558 162.979 15.6058 156.854 15.4591C150.673 15.311 142.933 16.8367 134.041 20.2625C131.724 21.1553 129.354 22.1677 126.939 23.2967C126.053 23.7113 125.043 23.7673 124.113 23.4631C120.813 22.3846 120.117 17.6652 123.259 16.1868C145.644 5.65188 165.211 4.1795 175.349 14.3172C193.197 32.1655 175.058 79.2424 134.834 119.466C94.61 159.69 47.5331 177.829 29.6848 159.981C20.3537 150.65 20.8587 133.33 29.2132 113.177C30.554 109.943 35.3387 110.479 36.5279 113.772C36.8546 114.677 36.8375 115.67 36.4719 116.559C36.1805 117.269 35.8998 117.974 35.6301 118.674C32.2043 127.565 30.6786 135.306 30.8267 141.487C30.9734 147.612 32.7234 151.706 35.3417 154.324C37.9599 156.943 42.0544 158.693 48.1792 158.839C54.3605 158.987 62.101 157.462 70.9922 154.036C88.7535 147.192 109.666 133.321 129.177 113.81C148.688 94.2984 162.56 73.3859 169.403 55.6245C172.829 46.7334 174.355 38.9928 174.207 32.8115Z" fill="#332D57"/>
<path fill-rule="evenodd" clip-rule="evenodd" d="M75.5186 129.526C74.6417 130.916 72.9909 131.624 71.3831 131.282C28.5164 122.162 -1.75187 101.752 0.0787601 80.8275C1.25375 67.3973 15.4149 56.4718 36.9893 49.962C40.297 48.964 42.9291 52.8645 41.2452 55.8814C40.7557 56.7583 39.9456 57.4236 38.9851 57.7166C37.8118 58.0744 36.6643 58.4457 35.5436 58.83C26.5305 61.9208 19.6203 65.7276 14.9803 69.8143C10.3827 73.8635 8.37104 77.836 8.04832 81.5247C7.7256 85.2134 9.01692 89.4748 12.8415 94.261C16.7013 99.0913 22.8455 104.04 31.185 108.649C42.2226 114.749 56.5128 119.926 72.895 123.424C75.6409 124.011 77.0166 127.151 75.5186 129.526ZM85.8279 128.177C86.6764 126.832 88.2353 126.114 89.8121 126.32C92.9563 126.731 96.1547 127.08 99.4007 127.364C126.889 129.769 151.825 126.953 169.83 120.779C178.843 117.688 185.753 113.881 190.393 109.795C194.991 105.745 197.003 101.773 197.325 98.0843C197.648 94.3956 196.357 90.1342 192.532 85.348C188.672 80.5177 182.528 75.5688 174.189 70.9598C173.258 70.4454 172.304 69.9376 171.328 69.4368C169.783 68.6443 168.603 67.2884 168 65.6604C166.935 62.79 169.802 59.7743 172.556 61.1104C193.72 71.3757 206.504 84.9667 205.295 98.7815C203.095 123.927 155.372 140.292 98.7035 135.334C95.2945 135.036 91.9307 134.667 88.6197 134.232C85.7473 133.855 84.2824 130.627 85.8279 128.177Z" fill="#332D57"/>
<path d="M35.3677 13C35.3677 16.866 32.2337 20 28.3677 20C24.5017 20 21.3677 16.866 21.3677 13C21.3677 9.13401 24.5017 6 28.3677 6C32.2337 6 35.3677 9.13401 35.3677 13Z" fill="#F7931B"/>
<path d="M46.3677 6C46.3677 7.65685 45.0245 9 43.3677 9C41.7108 9 40.3677 7.65685 40.3677 6C40.3677 4.34315 41.7108 3 43.3677 3C45.0245 3 46.3677 4.34315 46.3677 6Z" fill="#FECD64"/>
<path d="M171.368 168C171.368 170.761 169.129 173 166.368 173C163.606 173 161.368 170.761 161.368 168C161.368 165.239 163.606 163 166.368 163C169.129 163 171.368 165.239 171.368 168Z" fill="#F7931B"/>
<path d="M184.368 155C184.368 158.314 181.681 161 178.368 161C175.054 161 172.368 158.314 172.368 155C172.368 151.686 175.054 149 178.368 149C181.681 149 184.368 151.686 184.368 155Z" fill="#FECD64"/>
<path d="M166.368 152C166.368 153.657 165.025 155 163.368 155C161.711 155 160.368 153.657 160.368 152C160.368 150.343 161.711 149 163.368 149C165.025 149 166.368 150.343 166.368 152Z" fill="#FECD64"/>
<path d="M98.3677 101C100.577 101 102.368 102.791 102.368 105C102.368 107.209 100.577 109 98.3677 109C96.1585 109 94.3677 107.209 94.3677 105C94.3677 102.791 96.1585 101 98.3677 101Z" fill="#332D57"/>
<path d="M88.3677 90C91.1291 90 93.3677 92.2386 93.3677 95C93.3677 97.7614 91.1291 100 88.3677 100C85.6063 100 83.3677 97.7614 83.3677 95C83.3677 92.2386 85.6063 90 88.3677 90Z" fill="#332D57"/>
<path d="M85.3677 107C86.4722 107 87.3677 107.895 87.3677 109C87.3677 110.105 86.4722 111 85.3677 111C84.2631 111 83.3677 110.105 83.3677 109C83.3677 107.895 84.2631 107 85.3677 107Z" fill="#332D57"/>
</svg>
